# xmcd CD database file
#
# Track frame offsets:
#	187
#	16390
#	33085
#	52792
#	69070
#	85465
#	103340
#	120795
#	141725
#	162095
#
# Disc length: 2403 seconds
#
# Revision: 0
# Processed by: cddbd v1.5PL3 Copyright (c) Steve Scherf et al.
# Submitted via: CDex 1.51
#
DISCID=7709610a
DTITLE=JAZZで聴くクラシック - チャイコフスキー
DYEAR=1900
DGENRE=Jazz
TTITLE0=ピアノ協奏曲第1番
TTITLE1=白鳥の湖
TTITLE2=眠れる森の美女より「ワルツ」
TTITLE3=弦楽セレナード
TTITLE4=くるみ割り人形より「花のワルツ」
TTITLE5=交響曲第6番「悲愴」
TTITLE6=舟歌
TTITLE7=ヴァイオリン協奏曲ニ長調
TTITLE8=交響曲第5番第2楽章
TTITLE9=アンダンテ・カンタービレ
EXTD=
EXTT0=
EXTT1=
EXTT2=
EXTT3=
EXTT4=
EXTT5=
EXTT6=
EXTT7=
EXTT8=
EXTT9=
PLAYORDER=
